<?xml version="1.0" encoding="UTF-8" standalone="no"?>
<!DOCTYPE svg PUBLIC "-//W3C//DTD SVG 1.1//EN" "http://www.w3.org/Graphics/SVG/1.1/DTD/svg11.dtd">
<svg width="100%" height="100%" viewBox="0 0 585 585" version="1.1" xmlns="http://www.w3.org/2000/svg" xmlns:xlink="http://www.w3.org/1999/xlink" xml:space="preserve" xmlns:serif="http://www.serif.com/" style="fill-rule:evenodd;clip-rule:evenodd;stroke-linecap:round;stroke-linejoin:round;stroke-miterlimit:1.5;">
    <g transform="matrix(1,0,0,1,-317.23,-1135.18)">
        <g id="Spokes">
            <g transform="matrix(2.20285,0,0,2.20285,-562.04,-1523.12)">
                <circle cx="531.893" cy="1339.49" r="110.093" style="stroke:black;stroke-width:0.15px;"/>
            </g>
            <path d="M609.643,1135.18C771.03,1135.18 902.056,1266.2 902.056,1427.59C902.056,1588.98 771.03,1720 609.643,1720C448.256,1720 317.23,1588.98 317.23,1427.59C317.23,1266.2 448.256,1135.18 609.643,1135.18ZM433.667,1594.06C473.811,1634.53 518.196,1659.06 567.322,1665.77L582.796,1605.45C602.646,1608.14 623.853,1607.75 646.747,1603.54L665.007,1663.18C714.123,1651.74 757.831,1626.95 794.189,1584.03L749.134,1540.57C762.819,1522 772.837,1503.68 779.862,1485.58L840.639,1499.9C855.218,1449.17 856.694,1398.86 838.844,1349.19L777.965,1364.32C768.688,1343.03 758.208,1324.5 745.845,1310.28L789.453,1265.02C754.255,1226.04 710.147,1200.67 656.668,1189.67L638.661,1250.13C616.708,1247.11 595.36,1247.95 574.398,1251.26L556.385,1190.97C508.53,1201.99 464.298,1225.86 425.939,1269.33L470.307,1314.01C459.734,1327.11 449.584,1345.49 439.805,1368.5L378.047,1357.23C362.046,1410.02 364.575,1460.18 381.237,1508.34L443.338,1495.99C452.036,1516.29 462.705,1531.4 473.818,1545.34L433.667,1594.06Z" style="fill:rgb(128,128,109);"/>
        </g>
    </g>
</svg>
