<?xml version="1.0" encoding="UTF-8" standalone="no"?>
<!DOCTYPE svg PUBLIC "-//W3C//DTD SVG 1.1//EN" "http://www.w3.org/Graphics/SVG/1.1/DTD/svg11.dtd">
<svg width="100%" height="100%" viewBox="0 0 1200 9" version="1.1" xmlns="http://www.w3.org/2000/svg" xmlns:xlink="http://www.w3.org/1999/xlink" xml:space="preserve" xmlns:serif="http://www.serif.com/" style="fill-rule:evenodd;clip-rule:evenodd;stroke-linejoin:round;stroke-miterlimit:2;">
    <g transform="matrix(1.0094,0,0,1.0094,0,-9.5705)">
        <g id="g2394">
            <path id="path2398" d="M-0,13.945L-0,9.891L133.25,10.568C304.41,11.437 553.84,11.435 711,10.564C810.21,10.013 1093,9.549 1106.8,9.914C1110.3,10.007 1111.1,11.375 1108.2,12.458C1106.4,13.168 1048.7,13.642 857.5,14.52C793.15,14.815 688.98,15.308 626,15.616C496.02,16.25 477.98,16.279 335.12,16.078C278.26,15.998 231.54,16.132 231.29,16.375C231.05,16.618 229.6,16.459 228.07,16.021C226.55,15.583 199.92,15.152 168.9,15.064C137.88,14.975 88.875,14.782 60,14.636C3.77,14.351 0.852,14.451 1.684,16.618C1.975,17.378 1.716,18 1.107,18C0.48,18 0,16.243 0,13.945ZM1148.7,13.326C1148.6,13.23 1145.3,13.053 1141.5,12.932C1133.4,12.678 1130,12.105 1130,10.997C1130,10.565 1131,10.224 1132.2,10.239C1133.5,10.253 1146.5,10.007 1161.2,9.692C1179.5,9.301 1188.2,9.453 1188.6,10.171C1189.8,12.134 1186.7,12.808 1175.6,13.002C1169.5,13.108 1161,13.264 1156.7,13.348C1152.4,13.432 1148.8,13.422 1148.7,13.326ZM1121.5,12.032C1119.1,11.464 1118.9,11.16 1120.2,10.578C1122.4,9.602 1126.6,10.235 1126.2,11.5C1125.9,12.808 1125.1,12.898 1121.5,12.032Z" style="fill:white;fill-opacity:0.63;fill-rule:nonzero;"/>
            <path id="path2396" d="M342.85,15.515C342.61,15.278 339.4,14.973 335.71,14.836C329.05,14.591 326.93,13.497 331.25,12.54C333.13,12.124 399.55,12.419 402.45,12.857C403.01,12.941 402.97,13.432 402.36,14.043C401.7,14.696 394.82,15.041 383.91,14.966C361,14.808 344.74,15.043 343.93,15.543C343.57,15.764 343.09,15.752 342.85,15.515ZM438.78,15.452C438.46,15.126 434.97,14.87 431.03,14.882C425.88,14.899 423.98,14.567 424.27,13.703C424.65,12.587 429.3,12.446 450,12.923C451.92,12.967 464.98,12.832 479,12.622C493.82,12.4 504.99,12.629 505.66,13.169C506.36,13.726 507.05,13.732 507.39,13.184C508.04,12.132 538.52,12.189 539.58,13.245C539.96,13.63 540.78,13.625 541.39,13.232C542.86,12.289 561.14,11.94 572.75,12.634C589.63,13.642 582.33,14.79 559.09,14.782C546.49,14.778 535.69,15.077 535.09,15.446C534.49,15.816 533.53,15.829 532.96,15.475C532.39,15.122 524.4,14.897 515.21,14.975C489.29,15.197 466.7,15.199 464.5,14.98C463.4,14.871 457.3,15.066 450.94,15.413C444.58,15.76 439.11,15.777 438.78,15.452ZM164,14.179C148.66,12.77 162.44,11.605 192,11.811C199.42,11.863 229.95,12.022 259.82,12.166C309.03,12.401 319.67,12.866 312.79,14.478C310.43,15.033 170.23,14.751 164,14.179ZM317.54,14.069C317.23,13.557 317.33,12.913 317.78,12.637C318.93,11.923 328,12.371 328,13.143C328,14.951 318.6,15.783 317.54,14.069ZM404,13.703C404,12.571 405.92,12.302 413.51,12.373C425.8,12.488 425.54,14.339 413.17,14.789C405.76,15.059 404,14.85 404,13.703ZM585,13.655C585,11.585 653.25,10.918 655.35,12.967C657.26,14.833 615.55,15.865 609.33,14.106C607.77,13.666 603.14,13.671 599.04,14.115C594.67,14.589 591.34,14.547 591.01,14.015C590.67,13.472 589.85,13.481 588.97,14.037C586.84,15.386 585,15.208 585,13.655ZM658,13.25C658,12.312 661.68,11.969 672.75,11.875C680.86,11.806 694.7,11.587 703.5,11.388C721.31,10.985 732.28,11.703 729.77,13.108C728.91,13.588 719.73,14.017 709.36,14.06C698.98,14.103 689.6,14.153 688.5,14.172C664.27,14.591 658.01,14.401 658,13.25ZM0,12.436C0,11.323 3.687,11.075 19.75,11.108C40.685,11.15 47.833,11.834 40.5,13.091C32.501,14.463 0,13.937 0,12.436ZM45.667,13.333C44.144,11.81 45.22,11.001 48.75,11.015C53.601,11.035 56.113,12.47 52.835,13.348C49.761,14.171 46.497,14.164 45.667,13.333ZM57.566,13.032C53.035,11.422 60.08,11.147 105.54,11.162C152.81,11.177 158,11.367 158,13.086C158,14.104 60.435,14.052 57.57,13.032L57.566,13.032ZM734.406,12.86C733.666,11.653 740.506,11.234 756.496,11.508C775.056,11.827 773.996,11.742 773.996,12.9C773.996,13.912 735.036,13.872 734.406,12.86ZM775.766,12.218C774.796,11.049 776.476,10.871 786.556,11.079C800.936,11.377 805.686,11.942 803.826,13.136C801.526,14.609 777.086,13.809 775.766,12.218ZM808.246,13.334C804.146,11.692 809.416,11.099 828.746,11.027C840.706,10.983 860.846,10.897 873.496,10.838C886.146,10.778 902.576,10.789 909.996,10.863C917.416,10.936 933.096,10.879 944.836,10.735C956.566,10.591 966.386,10.824 966.656,11.253C966.916,11.682 967.586,11.751 968.146,11.407C970.096,10.202 1091.1,10.181 1090.7,11.386C1090.4,12.433 1040.1,13.069 967.496,12.943C955.396,12.922 944.596,12.905 943.496,12.906C942.396,12.907 935.646,12.969 928.496,13.045C921.346,13.121 911.216,13.153 905.996,13.117C900.776,13.08 876.916,13.227 852.996,13.443C829.076,13.659 808.936,13.61 808.246,13.334ZM1143.5,11.907C1139.1,11.382 1138.9,11.28 1142,11.017C1153.3,10.056 1162,10.18 1162,11.305C1162,12.62 1152.2,12.939 1143.5,11.907ZM1093,11.613C1093,10.792 1099.1,10.379 1099.6,11.167C1099.9,11.625 1098.5,12 1096.6,12C1094.6,12 1093,11.826 1093,11.613ZM1101,11C1101,10.45 1101.9,10 1102.9,10C1104,10 1105.2,10.45 1105.5,11C1105.9,11.567 1105,12 1103.6,12C1102.2,12 1101,11.55 1101,11ZM1165.3,11.373C1166.3,10.349 1176.9,10.106 1177.6,11.092C1177.9,11.602 1175.2,12 1171.4,12C1167.7,12 1164.9,11.718 1165.3,11.373ZM1183,11C1183,10.45 1183.9,10 1185.1,10C1186.2,10 1186.8,10.45 1186.5,11C1186.2,11.55 1185.2,12 1184.4,12C1183.6,12 1183,11.55 1183,11Z" style="fill:white;fill-rule:nonzero;"/>
        </g>
    </g>
</svg>
