<?xml version="1.0" encoding="UTF-8" standalone="no"?><!DOCTYPE svg PUBLIC "-//W3C//DTD SVG 1.1//EN" "http://www.w3.org/Graphics/SVG/1.1/DTD/svg11.dtd"><svg width="585px" height="585px" version="1.1" xmlns="http://www.w3.org/2000/svg" xmlns:xlink="http://www.w3.org/1999/xlink" xml:space="preserve" xmlns:serif="http://www.serif.com/" style="fill-rule:evenodd;clip-rule:evenodd;stroke-linejoin:round;stroke-miterlimit:2;"><path d="M79.966,91.369C190.894,-25.852 376.122,-30.961 493.343,79.966C610.564,190.894 615.674,376.122 504.746,493.343C393.819,610.564 208.591,615.674 91.369,504.746C-25.852,393.819 -30.961,208.591 79.966,91.369ZM292.316,534.596C349.299,533.251 397.622,517.871 436.265,486.804L403.09,434.107C418.687,421.538 432.982,405.868 445.659,386.344L501.524,414.071C526.973,370.53 539.011,321.747 532.831,265.842L470.297,268.695C466.21,245.986 459.792,226.121 451.472,208.576L503.653,174.28C476.823,128.818 441.299,93.169 392.951,71.992L362.092,126.606C340.255,118.715 319.592,113.589 300.765,112.794L297.866,50.012C245.358,48.784 196.617,63.385 151.868,94.667L183.408,149.306C166.119,163.169 152.057,179.253 140.055,196.756L83.884,168.401C58.998,210.736 45.929,259.267 51.135,317.005L114.089,315.495C116.338,332.178 122.707,352.18 132.698,375.099L82.064,412.21C109.408,460.115 147.582,492.757 194.015,513.758L227.726,460.159C248.448,467.795 266.757,470.432 284.524,471.945L292.316,534.596Z" style="fill:#80806d;"/></svg>